<svg width="429.00000000000006" height="86.99492028316426" viewBox="0 0 370.00000000000006 75.03058392720462" class="css-1j8o68f"><defs id="SvgjsDefs3039"></defs><g id="SvgjsG3040" featurekey="monogramFeature-0" transform="matrix(5.351681988402213,0,0,5.351681988402213,-5.351679436521382,-32.00304563331631)" fill="#ffffff"><path d="M11.04 6.42 q1.26 0.44 1.94 1.24 t0.68 1.86 q0 1.04 -0.64 1.86 t-1.72 1.14 q1.26 0.28 2.02 1.25 t0.76 2.29 q0 1.18 -0.7 2.08 t-1.97 1.38 t-2.97 0.48 l-7.44 0 l0 -14.02 l7.1 0 q1.68 0 2.94 0.44 z M8.61 11.1 q0.29 -0.28 0.29 -0.74 q0 -0.44 -0.29 -0.71 t-0.77 -0.27 l-2.22 0 l0 2 l2.22 0 q0.48 0 0.77 -0.28 z M8.87 16.29 q0.39 -0.31 0.39 -0.81 q0 -0.46 -0.39 -0.74 t-1.03 -0.28 l-2.22 0 l0 2.14 l2.22 0 q0.64 0 1.03 -0.31 z"></path></g><g id="SvgjsG3041" featurekey="fHLFJf-0" transform="matrix(2.4517206862329606,0,0,2.4517206862329606,87.05793564414905,6.349116956854713)" fill="#ffffff"><path d="M11.12 9.6 q1.14 0.7 1.76 1.99 t0.62 3.01 q0 1.68 -0.6 2.94 t-1.71 1.94 t-2.59 0.68 q-0.88 0 -1.62 -0.33 t-1.28 -0.95 l0 1.12 l-4.5 0 l0 -14.84 l4.5 0 l0 5 q1.08 -1.26 2.78 -1.26 q1.5 0 2.64 0.7 z M8.51 16.02 q0.45 -0.58 0.45 -1.54 t-0.45 -1.54 t-1.19 -0.58 t-1.18 0.58 t-0.44 1.54 t0.44 1.54 t1.18 0.58 t1.19 -0.58 z M23.5295 9.64 q1.32 0.74 2.02 2.11 t0.7 3.21 q0 0.38 -0.02 0.58 l-7.12 0 q0.22 0.64 0.69 0.97 t1.13 0.33 q1.18 0 2.22 -0.98 l2.34 2.3 q-0.88 0.98 -2.13 1.49 t-2.83 0.51 q-1.84 0 -3.19 -0.69 t-2.06 -1.95 t-0.71 -2.94 q0 -1.72 0.72 -3 t2.05 -1.98 t3.07 -0.7 q1.8 0 3.12 0.74 z M21.3995 12.34 q-0.37 -0.44 -0.95 -0.44 q-0.56 0 -0.93 0.42 t-0.51 1.14 l2.72 0 q0.04 -0.68 -0.33 -1.12 z M32.499 11.82 q-0.28 0 -0.45 0.1 t-0.17 0.26 q0 0.24 0.36 0.4 t1.2 0.38 q1.18 0.32 2.02 0.66 t1.47 1.04 t0.63 1.82 t-0.61 1.96 t-1.73 1.3 t-2.62 0.46 q-3.06 0 -5.34 -1.56 l1.36 -2.8 q2.2 1.36 4.04 1.36 q0.32 0 0.5 -0.09 t0.18 -0.23 q0 -0.22 -0.35 -0.37 t-1.13 -0.35 q-1.18 -0.3 -2 -0.64 t-1.45 -1.04 t-0.63 -1.84 t0.6 -1.99 t1.69 -1.32 t2.53 -0.47 q2.62 0 5.08 1.38 l-1.48 2.78 q-2.44 -1.2 -3.7 -1.2 z M47.4285 19.52 q-0.54 0.32 -1.41 0.5 t-1.77 0.18 q-1.84 0 -2.95 -1.01 t-1.11 -2.71 l0 -3.98 l-1.5 0 l0 -2.84 l1.5 0 l0 -3.06 l4.48 0 l0 3.06 l2.56 0 l0 2.84 l-2.56 0 l0 3.3 q0 0.44 0.24 0.69 t0.64 0.23 q0.38 0 1.12 -0.28 z M53.678 11.82 q-0.28 0 -0.45 0.1 t-0.17 0.26 q0 0.24 0.36 0.4 t1.2 0.38 q1.18 0.32 2.02 0.66 t1.47 1.04 t0.63 1.82 t-0.61 1.96 t-1.73 1.3 t-2.62 0.46 q-3.06 0 -5.34 -1.56 l1.36 -2.8 q2.2 1.36 4.04 1.36 q0.32 0 0.5 -0.09 t0.18 -0.23 q0 -0.22 -0.35 -0.37 t-1.13 -0.35 q-1.18 -0.3 -2 -0.64 t-1.45 -1.04 t-0.63 -1.84 t0.6 -1.99 t1.69 -1.32 t2.53 -0.47 q2.62 0 5.08 1.38 l-1.48 2.78 q-2.44 -1.2 -3.7 -1.2 z M68.9675 9.64 q1.32 0.74 2.02 2.11 t0.7 3.21 q0 0.38 -0.02 0.58 l-7.12 0 q0.22 0.64 0.69 0.97 t1.13 0.33 q1.18 0 2.22 -0.98 l2.34 2.3 q-0.88 0.98 -2.13 1.49 t-2.83 0.51 q-1.84 0 -3.19 -0.69 t-2.06 -1.95 t-0.71 -2.94 q0 -1.72 0.72 -3 t2.05 -1.98 t3.07 -0.7 q1.8 0 3.12 0.74 z M66.8375 12.34 q-0.37 -0.44 -0.95 -0.44 q-0.56 0 -0.93 0.42 t-0.51 1.14 l2.72 0 q0.04 -0.68 -0.33 -1.12 z M78.73700000000001 12.54 q-0.66 0 -1.05 0.55 t-0.39 1.47 q0 0.94 0.39 1.49 t1.05 0.55 q1 0 1.34 -1.18 l3.64 1.68 q-0.6 1.46 -1.97 2.26 t-3.25 0.8 q-1.72 0 -3.02 -0.69 t-2.01 -1.95 t-0.71 -2.94 q0 -1.7 0.71 -2.99 t2.02 -1.99 t3.05 -0.7 q1.78 0 3.14 0.83 t2.04 2.33 l-3.58 1.52 q-0.44 -1.04 -1.4 -1.04 z M91.1765 9.33 q0.85 -0.47 1.91 -0.47 l0 4.06 q-0.44 -0.06 -0.86 -0.06 q-1.16 0 -1.82 0.51 t-0.66 1.41 l0 5.22 l-4.5 0 l0 -10.94 l4.5 0 l0 1.6 q0.58 -0.86 1.43 -1.33 z M103.016 9.64 q1.32 0.74 2.02 2.11 t0.7 3.21 q0 0.38 -0.02 0.58 l-7.12 0 q0.22 0.64 0.69 0.97 t1.13 0.33 q1.18 0 2.22 -0.98 l2.34 2.3 q-0.88 0.98 -2.13 1.49 t-2.83 0.51 q-1.84 0 -3.19 -0.69 t-2.06 -1.95 t-0.71 -2.94 q0 -1.72 0.72 -3 t2.05 -1.98 t3.07 -0.7 q1.8 0 3.12 0.74 z M100.886 12.34 q-0.37 -0.44 -0.95 -0.44 q-0.56 0 -0.93 0.42 t-0.51 1.14 l2.72 0 q0.04 -0.68 -0.33 -1.12 z M115.4055 19.52 q-0.54 0.32 -1.41 0.5 t-1.77 0.18 q-1.84 0 -2.95 -1.01 t-1.11 -2.71 l0 -3.98 l-1.5 0 l0 -2.84 l1.5 0 l0 -3.06 l4.48 0 l0 3.06 l2.56 0 l0 2.84 l-2.56 0 l0 3.3 q0 0.44 0.24 0.69 t0.64 0.23 q0.38 0 1.12 -0.28 z"></path></g></svg>
