<svg width="307.3965919337982" height="304.915625" viewBox="0 0 312.5 309.9778439736934" class="css-1j8o68f"><defs id="SvgjsDefs1227"></defs><g id="SvgjsG1228" featurekey="rootContainer" transform="matrix(3.0663293604554758,0,0,3.0663293604554758,0.13628133105503454,-0.02809603534088609)" fill="#111111"><path xmlns="http://www.w3.org/2000/svg" d="M101.8 83.6l-.2-29.5c0-6 .1-12.2-.2-18-.1-2.5-.1-5.1-.1-7.8 0-4.7-.1-9-.4-13.2l-.2-4.2c-.1-2.7-.2-5.3-.3-8V1h-7.3L77.2.7H66.6a25.7 25.7 0 0 0-5.5.6l-.6.3H49.8c-.1-.2-.8-.3-2.2-.4L34.3.3a130.5 130.5 0 0 0-18.8.1C12.3.6 9 .8 4.6.9L1.5.5H.4v1.2c-.2 2-.3 4.3-.3 7s0 6.8-.1 10.2 0 5.3 0 8a42.2 42.2 0 0 0 .4 6.9 20.3 20.3 0 0 1 .3 2.9c.1 3.8.4 4.8.8 5.5v17.6l-.2.5c.1 4-.1 7.6-.2 11.3-.3 7.4-.4 15-.1 22.5a25.5 25.5 0 0 0 .5 4.9v.8H6l-.2.2h5.4a51 51 0 0 1 8.6.4 21.1 21.1 0 0 0 3.8.3c6.6-.1 12.7.1 18.9.4h6.7l13.9-.3c6.1-.1 11.9-.5 18.3-.5h9.7l3.5-.2 2.8-.5h2.3v-1c.3 1.6.6 1.4 1-.8.1-.6.2-1.3.3-2s.3-2.6.5-3.4a51.3 51.3 0 0 0 .3-8.8z"></path></g><g id="SvgjsG1229" featurekey="symbolFeature-0" transform="matrix(0.9542667694427431,0,0,0.9542667694427431,108.36586584445806,73.6410524294499)" fill="#fcfcfc"><g xmlns="http://www.w3.org/2000/svg"><polygon points="46,52 16,52 16,47 46,47 45,48.416 45,50.789  "></polygon><rect x="60" y="47" width="24" height="5"></rect><polygon points="17,53 20,56 31,56 34,53  "></polygon><polygon points="66,53 69,56 80,56 83,53  "></polygon><path d="M37,31"></path><path d="M66,42c-0.045-0.684-0.441-1.269-1.002-1.594L64.978,23C64.611,11.535,58.047,2.472,50.006,2.472   c-8.092,0-14.705,10.607-14.992,21.528l-0.013,16.406C34.441,40.732,34.045,41.317,34,42v1.126l1.953,2.883L38,43.126V42   c-0.045-0.682-0.44-1.267-0.999-1.592c0.003-4.288,0.01-15.758,0.01-15.76c0-10.136,5.818-20.177,12.995-20.177   c7.165,0,12.973,9.498,12.994,19.474v16.462c-0.56,0.325-0.955,0.91-1,1.592v1.126L64.109,46L66,43.126V42z"></path><g><path d="M66,33v6.909c0.609,0.549,1,1.336,1,2.221s-0.391,1.672-1,2.222V46h17v-1l6-3.514V35L66,33z"></path><path d="M61,42.13c0-0.885,0.391-1.672,1-2.221V33l-12-1l-12,1v6.909c0.609,0.549,1,1.336,1,2.221s-0.391,1.672-1,2.222V46h24    v-1.648C61.391,43.802,61,43.015,61,42.13z"></path><path d="M11,41.486L17,45v1h17v-1.648c-0.609-0.55-1-1.337-1-2.222s0.391-1.672,1-2.221V33l-23,2V41.486z"></path></g><path d="M47.054,47L46,48.416v2.373L47.054,52H59v-5H47.054z M52.5,50h-3c-0.276,0-0.5-0.224-0.5-0.5s0.224-0.5,0.5-0.5h3   c0.276,0,0.5,0.224,0.5,0.5S52.776,50,52.5,50z"></path><polygon points="39,53 42,56 58,56 61,53  "></polygon><polygon points="89,42.566 84,45.566 84,46 85,46 85,53 84,53 84,53.414 80.414,57 68.586,57 65,53.414 65,53 62,53 62,53.414    58.414,57 41.586,57 38,53.414 38,53 35,53 35,53.414 31.414,57 19.586,57 16,53.414 16,53 15,53 15,46 16,46 16,45.566 11,42.566    8,94.75 10.834,98 51,98 52,98 89,98 91.834,94.75  "></polygon></g></g><g id="SvgjsG1230" featurekey="nameFeature-0" transform="matrix(1.3956733826988337,0,0,1.3956733826988337,57.33984716614052,176.3928830900996)" fill="#fcfcfc"><path d="M-0.96 40 l5.64 -32 l6.08 0 c4.12 0 5.04 2.56 4.2 7.16 l-0.12 0.84 c-0.48 2.76 -1.52 4.92 -2.52 6.48 l-0.04 0.16 c1.28 1.24 1.76 3.68 1.24 7.92 l-0.24 1.28 c-1.32 5.64 -3.24 8.16 -7.36 8.16 l-6.88 0 z M6.28 21.6 l2.08 0 c1.12 0 2.16 -1.32 2.92 -5.6 l0.12 -0.84 c0.56 -3.08 0 -3.96 -1.2 -3.96 l-2.08 0 z M3.76 36 l2.88 0 c1.2 0 2.2 -1 2.92 -4.16 l0.24 -1.28 c0.68 -4.76 0 -5.76 -1.2 -5.76 l-2.88 0 z M15.14 40 l5.64 -32 l9.2 0 l-0.56 3.2 l-5.2 0 l-1.84 10.4 l4.4 0 l-0.56 3.2 l-4.4 0 l-1.96 11.2 l5.2 0 l-0.72 4 l-9.2 0 z M28.560000000000002 30.240000000000002 l4.04 0 c-0.84 5.16 -0.6 6.16 0.84 6.16 c1.96 0 2.24 -1.64 3 -6 c1.12 -6.4 -7.08 -4.68 -5.6 -13.2 c0.88 -5 1.72 -9.6 7.72 -9.6 c4.44 0 5.2 2.52 4.4 8.56 l-4 0 c0.6 -4.36 0.32 -5.36 -0.96 -5.36 c-1.96 0 -2.36 2.16 -3.12 6.4 c-1.08 6.2 7.28 4 5.64 13.2 c-0.96 5.6 -1.76 10 -7.8 10 c-4.64 0 -5.24 -2.76 -4.16 -10.16 z M44.94 40 l5 -28.4 l-4 0 l0.64 -3.6 l12 0 l-0.64 3.6 l-4 0 l-5 28.4 l-4 0 z M56.76 30.240000000000002 l4.04 0 c-0.84 5.16 -0.6 6.16 0.84 6.16 c1.96 0 2.24 -1.64 3 -6 c1.12 -6.4 -7.08 -4.68 -5.6 -13.2 c0.88 -5 1.72 -9.6 7.72 -9.6 c4.44 0 5.2 2.52 4.4 8.56 l-4 0 c0.6 -4.36 0.32 -5.36 -0.96 -5.36 c-1.96 0 -2.36 2.16 -3.12 6.4 c-1.08 6.2 7.28 4 5.64 13.2 c-0.96 5.6 -1.76 10 -7.8 10 c-4.64 0 -5.24 -2.76 -4.16 -10.16 z M70.74000000000001 40 l5.64 -32 l9.2 0 l-0.56 3.2 l-5.2 0 l-1.84 10.4 l4.4 0 l-0.56 3.2 l-4.4 0 l-1.96 11.2 l5.2 0 l-0.72 4 l-9.2 0 z M85.8 23.16 c1.96 -11.16 2.76 -15.56 8.36 -15.56 c4.12 0 4.8 2.52 4 8.56 l-3.72 0 c0.6 -4.36 0.36 -5.36 -0.84 -5.36 c-1.84 0 -2.2 1.96 -4.04 12.36 c-2.04 11.56 -2.32 13.24 -0.48 13.24 c1.32 0 1.88 -1 2.88 -6.16 l3.76 0 c-1.56 7.4 -3.04 10.16 -7.36 10.16 c-5.6 0 -4.8 -4.44 -2.56 -17.24 z M97.30000000000001 40 l5.64 -32 l6.48 0 c4.12 0 5.08 2.52 4.24 7.36 c-0.8 4.36 -1.76 6.84 -3.2 8.04 l-0.04 0.24 c0.96 0.36 0.96 2.24 0.56 6.92 l-0.88 9.44 l-4 0 l1.16 -9.44 c0.56 -4.76 0 -5.76 -1.2 -5.76 l-2.08 0 l-2.68 15.2 l-4 0 z M104.54 21.6 l2.48 0 c1.4 0 2.04 -1.4 2.92 -6.24 c0.52 -3.16 0.12 -4.16 -1.08 -4.16 l-2.48 0 z M113.80000000000001 40 l5.64 -32 l9.2 0 l-0.56 3.2 l-5.2 0 l-1.84 10.4 l4.4 0 l-0.56 3.2 l-4.4 0 l-1.96 11.2 l5.2 0 l-0.72 4 l-9.2 0 z M128.70000000000002 40 l5 -28.4 l-4 0 l0.64 -3.6 l12 0 l-0.64 3.6 l-4 0 l-5 28.4 l-4 0 z"></path></g></svg>
